<svg xmlns="http://www.w3.org/2000/svg" version="1.1" xmlns:xlink="http://www.w3.org/1999/xlink" xmlns:svgjs="http://svgjs.dev/svgjs" width="100%" height="100%" viewBox="0 0 1000 600"><rect width="1000" height="600" x="0" y="0" fill="#ffffff"/><g><rect width="333.3333333333333" height="333.3333333333333" y="342.4710535767166" fill="#000000" transform="matrix(0.3903214500872997,0,0,0.3903214500872996,0,101.27260996396758)" x="320.2488708496093"/><path d="M365.4274264976004 584.1377241192314L349.5643317397663 584.1377241192314L349.5643317397663 434.13772866053756L405.6952824213331 434.13772866053756Q424.7726627961392 434.13772866053756 438.492900475992 440.23891895201217Q452.2131381558447 446.34010924348684 459.594090313336 457.8282041337757Q466.9750424708273 469.28653712020366 466.9750424708273 485.5662985320897L466.9750424708273 485.5662985320897Q466.9750424708273 501.42939328992384 459.594090313336 512.8877262763518Q452.2131381558447 524.3460592627798 438.492900475992 530.4472495542544Q424.7726627961392 536.5782017495899 405.6952824213331 536.5782017495899L405.6952824213331 536.5782017495899L358.3440933787177 536.5782017495899L365.4274264976004 529.2865353036813L365.4274264976004 584.1377241192314ZM469.35599477969544 584.1377241192314L451.9750429249579 584.1377241192314L413.4036155212938 529.7032019577332L430.5464721451445 529.7032019577332L469.35599477969544 584.1377241192314ZM365.4274264976004 440.35796656745555L365.4274264976004 530.5662971696979L358.3440933787177 523.0662973967632L405.27861576728117 523.0662973967632Q427.77861508608527 523.0662973967632 439.4452813995392 513.2151072188212Q451.14170961685403 503.3639170408792 451.14170961685403 485.5662985320897L451.14170961685403 485.5662985320897Q451.14170961685403 467.5603466962743 439.4452813995392 457.7091565183323Q427.77861508608527 447.8579663403903 405.27861576728117 447.8579663403903L405.27861576728117 447.8579663403903L358.3440933787177 447.8579663403903L365.4274264976004 440.35796656745555ZM520.3381360933349 584.1377241192314L504.47504133550075 584.1377241192314L504.47504133550075 434.13772866053756L560.6357539209284 434.13772866053756Q579.7131342957346 434.13772866053756 593.4036100717265 440.23891895201217Q607.1238477515792 446.34010924348684 614.5345618129313 457.8282041337757Q621.9155139704226 469.28653712020366 621.9155139704226 485.5662985320897L621.9155139704226 485.5662985320897Q621.9155139704226 501.42939328992384 614.5345618129313 512.8877262763518Q607.1238477515792 524.3460592627798 593.4036100717265 530.4472495542544Q579.7131342957346 536.5782017495899 560.6357539209284 536.5782017495899L560.6357539209284 536.5782017495899L513.284564878313 536.5782017495899L520.3381360933349 529.2865353036813L520.3381360933349 584.1377241192314ZM624.26670437543 584.1377241192314L606.9155144245533 584.1377241192314L568.344087020889 529.7032019577332L585.4869436447398 529.7032019577332L624.26670437543 584.1377241192314ZM520.3381360933349 440.35796656745555L520.3381360933349 530.5662971696979L513.284564878313 523.0662973967632L560.1893253630155 523.0662973967632Q582.6893246818197 523.0662973967632 594.3857528991346 513.2151072188212Q606.0524192125886 503.3639170408792 606.0524192125886 485.5662985320897L606.0524192125886 485.5662985320897Q606.0524192125886 467.5603466962743 594.3857528991346 457.7091565183323Q582.6893246818197 447.8579663403903 560.1893253630155 447.8579663403903L560.1893253630155 447.8579663403903L513.284564878313 447.8579663403903L520.3381360933349 440.35796656745555Z " fill="#ffffff" transform="matrix(0.3903214500872997,0,0,0.3903214500872996,0,101.27260996396758)"/><path d="M748.7162660652832 552.4107904252576L736.9155280579031 552.4107904252576L736.9155280579031 440.82407455809897L778.6719856224788 440.82407455809897Q792.863867541298 440.82407455809897 803.0705096077187 445.3628199455528Q813.2771516741393 449.9015653330067 818.7679265818884 458.4476907942613Q824.2587014896375 466.97167603411367 824.2587014896375 479.08237714112477L824.2587014896375 479.08237714112477Q824.2587014896375 490.8831151485048 818.7679265818884 499.40710038835726Q813.2771516741393 507.93108562820964 803.0705096077187 512.4698310156635Q792.863867541298 517.0307166245195 778.6719856224788 517.0307166245195L778.6719856224788 517.0307166245195L743.4468933715563 517.0307166245195L748.7162660652832 511.6063623809772L748.7162660652832 552.4107904252576ZM826.0299192018146 552.4107904252576L813.1000299029216 552.4107904252576L784.4063029656522 511.9163254806082L797.1590704933275 511.9163254806082L826.0299192018146 552.4107904252576ZM748.7162660652832 445.45138083116166L748.7162660652832 512.5583919012724L743.4468933715563 506.97905610791446L778.3620225228477 506.97905610791446Q795.1000299029216 506.97905610791446 803.7789966925894 499.6506428237816Q812.4801037036597 492.3222295396488 812.4801037036597 479.08237714112477L812.4801037036597 479.08237714112477Q812.4801037036597 465.68754319278526 803.7789966925894 458.35912990865245Q795.1000299029216 451.0307166245196 778.3620225228477 451.0307166245196L778.3620225228477 451.0307166245196L743.4468933715563 451.0307166245196L748.7162660652832 445.45138083116166ZM885.3214321169437 553.2078383957373L885.3214321169437 553.2078383957373Q872.2587014896375 553.2078383957373 862.3620225228478 547.7170634879883Q852.4874837774603 542.204148358837 846.9081479841024 532.5731520488739Q841.3288121907444 522.9200155175085 841.3288121907444 510.4772110894643L841.3288121907444 510.4772110894643Q841.3288121907444 498.0565468828222 846.6646055486781 488.49197123706574Q852.0003989066116 478.9273955913093 861.3214321169438 473.414480462158Q870.6646055486781 467.9237055544089 882.2882217848404 467.9237055544089L882.2882217848404 467.9237055544089Q894.0889597922205 467.9237055544089 903.2550114527371 473.2594989123425Q912.4210631132537 478.59529227027605 917.6904358069806 488.24842880164135Q922.9376682793054 497.9015653330067 922.9376682793054 510.4772110894643L922.9376682793054 510.4772110894643Q922.9376682793054 511.274259059944 922.8712476150987 512.1598679160325Q922.7826867294899 513.0454767721211 922.7826867294899 513.9975062924163L922.7826867294899 513.9975062924163L849.9413583162058 513.9975062924163L849.9413583162058 505.5399417167705L916.7162660652832 505.5399417167705L912.2660815634382 508.8831151485049Q912.2660815634382 499.8056243735971 908.3472623752463 492.7207535248886Q904.4505834084566 485.6137424547779 897.764236544988 481.6285026023794Q891.0557494601172 477.64326274998086 882.2882217848404 477.64326274998086L882.2882217848404 477.64326274998086Q873.6756756593792 477.64326274998086 866.834347246095 481.6285026023794Q859.9708786114087 485.6137424547779 856.1406203088256 492.78717418909525Q852.3325022276448 499.9606059234126 852.3325022276448 509.21521846953806L852.3325022276448 509.21521846953806L852.3325022276448 510.96429596031294Q852.3325022276448 520.5288716060694 856.5391442940655 527.7908642259956Q860.7679265818884 535.0307166245195 868.3398823014455 539.104517362527Q875.9118380210028 543.1561778791322 885.6313952165747 543.1561778791322L885.6313952165747 543.1561778791322Q893.2919118217408 543.1561778791322 899.9118380210028 540.455070868062Q906.5317642202648 537.753963856992 911.314052043143 532.174628063634L911.314052043143 532.174628063634L917.6904358069806 539.5030413477668Q912.1111000136227 546.1893882112355 903.7420963235858 549.7096834141876Q895.3730926335489 553.2078383957373 885.3214321169437 553.2078383957373ZM980.8122070246928 553.2078383957373L980.8122070246928 553.2078383957373Q968.3694025966486 553.2078383957373 958.5612845154677 547.7170634879883Q948.7753066556892 542.204148358837 943.1959708623311 532.5731520488739Q937.6166350689733 522.9200155175085 937.6166350689733 510.4772110894643L937.6166350689733 510.4772110894643Q937.6166350689733 497.9015653330067 943.1959708623311 488.33698968725025Q948.7753066556892 478.7724140414938 958.5612845154677 473.34805979795135Q968.3694025966486 467.9237055544089 980.8122070246928 467.9237055544089L980.8122070246928 467.9237055544089Q991.4837937405599 467.9237055544089 1000.0963398660211 472.06392695662294Q1008.7088859914825 476.20414835883696 1013.6461553641763 484.5067313846672L1013.6461553641763 484.5067313846672L1005.1885907885304 490.2410487278406Q1000.8933878365009 483.864664964003 994.5170040726633 480.8314546318997Q988.1406203088256 477.79824429979635 980.6572254748774 477.79824429979635L980.6572254748774 477.79824429979635Q971.7125760283828 477.79824429979635 964.5391442940655 481.87204503780373Q957.3657125597482 485.9458457758111 953.2254911575341 493.274259059944Q949.0852697553202 500.6026723440768 949.0852697553202 510.4772110894643L949.0852697553202 510.4772110894643Q949.0852697553202 520.3738900562539 953.2254911575341 527.7023033403868Q957.3657125597482 535.0307166245195 964.5391442940655 539.104517362527Q971.7125760283828 543.1561778791322 980.6572254748774 543.1561778791322L980.6572254748774 543.1561778791322Q988.1406203088256 543.1561778791322 994.5170040726633 540.145107768431Q1000.8933878365009 537.1118974363278 1005.1885907885304 530.8904952223056L1005.1885907885304 530.8904952223056L1013.6461553641763 536.624812565479Q1008.7088859914825 544.7502738200916 1000.0963398660211 548.9790561079144Q991.4837937405599 553.2078383957373 980.8122070246928 553.2078383957373ZM1071.343572338346 553.2078383957373L1071.343572338346 553.2078383957373Q1058.2808417110396 553.2078383957373 1048.4063029656522 547.7170634879883Q1038.5096239988625 542.204148358837 1032.9302882055044 532.5731520488739Q1027.3509524121469 522.9200155175085 1027.3509524121469 510.4772110894643L1027.3509524121469 510.4772110894643Q1027.3509524121469 498.0565468828222 1032.6867457700805 488.49197123706574Q1038.0446793494161 478.9273955913093 1047.3657125597483 473.414480462158Q1056.68674577008 467.9237055544089 1068.332502227645 467.9237055544089L1068.332502227645 467.9237055544089Q1080.1111000136225 467.9237055544089 1089.2771516741395 473.2594989123425Q1098.4432033346561 478.59529227027605 1103.712576028383 488.24842880164135Q1108.9819487221098 497.9015653330067 1108.9819487221098 510.4772110894643L1108.9819487221098 510.4772110894643Q1108.9819487221098 511.274259059944 1108.893387836501 512.1598679160325Q1108.8048269508922 513.0454767721211 1108.8048269508922 513.9975062924163L1108.8048269508922 513.9975062924163L1035.9634985376078 513.9975062924163L1035.9634985376078 505.5399417167705L1102.7605465080878 505.5399417167705L1098.2882217848405 508.8831151485049Q1098.2882217848405 499.8056243735971 1094.3915428180508 492.7207535248886Q1090.472723629859 485.6137424547779 1083.7863767663903 481.6285026023794Q1077.1000299029215 477.64326274998086 1068.332502227645 477.64326274998086L1068.332502227645 477.64326274998086Q1059.7199561021835 477.64326274998086 1052.8564874674971 481.6285026023794Q1046.0151590542132 485.6137424547779 1042.1849007516303 492.78717418909525Q1038.3546424490469 499.9606059234126 1038.3546424490469 509.21521846953806L1038.3546424490469 509.21521846953806L1038.3546424490469 510.96429596031294Q1038.3546424490469 520.5288716060694 1042.5834247368698 527.7908642259956Q1046.8122070246927 535.0307166245195 1054.3841627442498 539.104517362527Q1061.9561184638073 543.1561778791322 1071.675675659379 543.1561778791322L1071.675675659379 543.1561778791322Q1079.314052043143 543.1561778791322 1085.933978242405 540.455070868062Q1092.5539044416669 537.753963856992 1097.3361922645454 532.174628063634L1097.3361922645454 532.174628063634L1103.712576028383 539.5030413477668Q1098.133240235025 546.1893882112355 1089.7642365449879 549.7096834141876Q1081.3952328549512 553.2078383957373 1071.343572338346 553.2078383957373ZM1175.291911821741 553.2078383957373L1175.291911821741 553.2078383957373Q1164.4432033346561 553.2078383957373 1155.675675659379 548.1820081374348Q1146.9081479841025 543.1561778791322 1141.7273361759844 533.6801631189845Q1136.5465243678664 524.204148358837 1136.5465243678664 510.4772110894643L1136.5465243678664 510.4772110894643Q1136.5465243678664 496.7724140414938 1141.6609155117776 487.29639928134617Q1146.7531664342869 477.79824429979635 1155.5206941095635 472.86097492710263Q1164.2882217848405 467.9237055544089 1175.291911821741 467.9237055544089L1175.291911821741 467.9237055544089Q1187.2476313789366 467.9237055544089 1196.723646139084 473.2594989123425Q1206.2218011206337 478.59529227027605 1211.6240151427742 488.24842880164135Q1217.0483693863166 497.9015653330067 1217.0483693863166 510.4772110894643L1217.0483693863166 510.4772110894643Q1217.0483693863166 523.2299786171395 1211.6240151427742 532.794554262896Q1206.2218011206337 542.3591299086524 1196.723646139084 547.7834841521949Q1187.2476313789366 553.2078383957373 1175.291911821741 553.2078383957373ZM1143.4099930025527 583.3406797241506L1132.096339866021 583.3406797241506L1132.096339866021 468.7207535248886L1142.922908131704 468.7207535248886L1142.922908131704 493.9163254806082L1141.8158970615932 510.65433286068196L1143.4099930025527 527.5473217905712L1143.4099930025527 583.3406797241506ZM1174.494863851261 543.1561778791322L1174.494863851261 543.1561778791322Q1183.4173730763532 543.1561778791322 1190.4358232608552 539.104517362527Q1197.454273445357 535.0307166245195 1201.5944948475712 527.6137424547779Q1205.734716249785 520.2189085064384 1205.734716249785 510.4772110894643L1205.734716249785 510.4772110894643Q1205.734716249785 500.7576538938923 1201.5944948475712 493.42924060975946Q1197.454273445357 486.1008273256266 1190.4358232608552 481.9606059234126Q1183.4173730763532 477.79824429979635 1174.494863851261 477.79824429979635L1174.494863851261 477.79824429979635Q1165.5723546261688 477.79824429979635 1158.465343556058 481.9606059234126Q1151.3804727073498 486.1008273256266 1147.3066719693425 493.42924060975946Q1143.255011452737 500.7576538938923 1143.255011452737 510.4772110894643L1143.255011452737 510.4772110894643Q1143.255011452737 520.2189085064384 1147.3066719693425 527.6137424547779Q1151.3804727073498 535.0307166245195 1158.465343556058 539.104517362527Q1165.5723546261688 543.1561778791322 1174.494863851261 543.1561778791322ZM1266.6203251058737 553.2078383957373L1266.6203251058737 553.2078383957373Q1254.8417273198957 553.2078383957373 1248.465343556058 546.8314546318996Q1242.0889597922205 540.455070868062 1242.0889597922205 528.8093144104974L1242.0889597922205 528.8093144104974L1242.0889597922205 450.2336686540399L1253.4026129287522 450.2336686540399L1253.4026129287522 528.1893882112355Q1253.4026129287522 535.5178014953683 1257.144310345726 539.5030413477668Q1260.8860077627 543.4882812001654 1267.904457947202 543.4882812001654L1267.904457947202 543.4882812001654Q1275.3878527811503 543.4882812001654 1280.3472623752464 539.1709380267337L1280.3472623752464 539.1709380267337L1284.332502227645 547.3185395027484Q1280.9671885745083 550.3296096134495 1276.273461637239 551.7687240045934Q1271.5797346999698 553.2078383957373 1266.6203251058737 553.2078383957373ZM1278.9081479841025 478.1303476208296L1227.1000299029215 478.1303476208296L1227.1000299029215 468.7207535248886L1278.9081479841025 468.7207535248886L1278.9081479841025 478.1303476208296ZM1316.2144210468332 552.4107904252576L1304.8786276888995 552.4107904252576L1304.8786276888995 468.7207535248886L1316.2144210468332 468.7207535248886L1316.2144210468332 552.4107904252576ZM1310.6350852534752 450.2336686540399L1310.6350852534752 450.2336686540399Q1307.114790050523 450.2336686540399 1304.723646139084 447.8425247426008Q1302.332502227645 445.45138083116166 1302.332502227645 442.1082073994274L1302.332502227645 442.1082073994274Q1302.332502227645 438.7428937462908 1304.723646139084 436.44031072046056Q1307.114790050523 434.1377276946303 1310.6350852534752 434.1377276946303L1310.6350852534752 434.1377276946303Q1314.133240235025 434.1377276946303 1316.524384146464 436.3517498348517Q1318.9155280579034 438.5879121964753 1318.9155280579034 441.93108562820964L1318.9155280579034 441.93108562820964Q1318.9155280579034 445.45138083116166 1316.6129450320732 447.8425247426008Q1314.2882217848405 450.2336686540399 1310.6350852534752 450.2336686540399ZM1381.8823177258 553.2078383957373L1381.8823177258 553.2078383957373Q1369.7716166187888 553.2078383957373 1360.1184800874234 547.7170634879883Q1350.4874837774605 542.204148358837 1344.9081479841025 532.5731520488739Q1339.3288121907444 522.9200155175085 1339.3288121907444 510.4772110894643L1339.3288121907444 510.4772110894643Q1339.3288121907444 497.9015653330067 1344.9081479841025 488.33698968725025Q1350.4874837774605 478.7724140414938 1360.052059423217 473.34805979795135Q1369.6166350689732 467.9237055544089 1381.8823177258 467.9237055544089L1381.8823177258 467.9237055544089Q1394.325122153844 467.9237055544089 1403.9561184638073 473.34805979795135Q1413.6092549951727 478.7724140414938 1419.1000299029215 488.33698968725025Q1424.6129450320727 497.9015653330067 1424.6129450320727 510.4772110894643L1424.6129450320727 510.4772110894643Q1424.6129450320727 522.9200155175085 1419.1000299029215 532.5731520488739Q1413.6092549951727 542.204148358837 1403.8896977996005 547.7170634879883Q1394.1480003826264 553.2078383957373 1381.8823177258 553.2078383957373ZM1381.8823177258 543.1561778791322L1381.8823177258 543.1561778791322Q1390.9598085007078 543.1561778791322 1397.9782586852093 539.104517362527Q1404.9967088697113 535.0307166245195 1409.0705096077186 527.6137424547779Q1413.122170124324 520.2189085064384 1413.122170124324 510.4772110894643L1413.122170124324 510.4772110894643Q1413.122170124324 500.6026723440768 1409.0705096077186 493.274259059944Q1404.9967088697113 485.9458457758111 1397.9782586852093 481.87204503780373Q1390.9598085007078 477.79824429979635 1382.0372992756152 477.79824429979635L1382.0372992756152 477.79824429979635Q1373.114790050523 477.79824429979635 1366.0963398660215 481.87204503780373Q1359.0778896815195 485.9458457758111 1354.9376682793054 493.274259059944Q1350.7974468770913 500.6026723440768 1350.7974468770913 510.4772110894643L1350.7974468770913 510.4772110894643Q1350.7974468770913 520.2189085064384 1354.9376682793054 527.6137424547779Q1359.0778896815195 535.0307166245195 1366.0963398660215 539.104517362527Q1373.114790050523 543.1561778791322 1381.8823177258 543.1561778791322ZM1490.4358232608552 467.9237055544089L1490.4358232608552 467.9237055544089Q1500.642465327276 467.9237055544089 1508.3694025966488 471.82038452119855Q1516.0963398660215 475.73920370939044 1520.4801037036596 483.7096834141875Q1524.863867541298 491.6801631189845 1524.863867541298 503.7908642259956L1524.863867541298 503.7908642259956L1524.863867541298 552.4107904252576L1513.5502144047668 552.4107904252576L1513.5502144047668 504.89787529610635Q1513.5502144047668 491.6801631189845 1506.930288205505 484.9052553699071Q1500.332502227645 478.1303476208296 1488.3767826704493 478.1303476208296L1488.3767826704493 478.1303476208296Q1479.4321332239547 478.1303476208296 1472.8343472460951 481.71706348798824Q1466.2144210468332 485.3037793551469 1462.6277051796746 492.0786871042244Q1459.0409893125156 498.8535948533019 1459.0409893125156 508.4181704990583L1459.0409893125156 508.4181704990583L1459.0409893125156 552.4107904252576L1447.7273361759844 552.4107904252576L1447.7273361759844 468.7207535248886L1458.5539044416669 468.7207535248886L1458.5539044416669 491.6801631189845L1456.8048269508922 487.3628199455528Q1460.7900668032908 478.28532917064507 1469.5575944785674 473.10451736252696Q1478.325122153844 467.9237055544089 1490.4358232608552 467.9237055544089ZM1611.4321332239551 552.4107904252576L1599.6313952165747 552.4107904252576L1599.6313952165747 440.82407455809897L1641.4099930025527 440.82407455809897Q1655.5797346999698 440.82407455809897 1665.7863767663903 445.3628199455528Q1675.9930188328108 449.9015653330067 1681.48379374056 458.4476907942613Q1686.9967088697113 466.97167603411367 1686.9967088697113 479.08237714112477L1686.9967088697113 479.08237714112477Q1686.9967088697113 490.8831151485048 1681.48379374056 499.40710038835726Q1675.9930188328108 507.93108562820964 1665.7863767663903 512.4698310156635Q1655.5797346999698 517.0307166245195 1641.4099930025527 517.0307166245195L1641.4099930025527 517.0307166245195L1606.1627605302278 517.0307166245195L1611.4321332239551 511.6063623809772L1611.4321332239551 552.4107904252576ZM1688.7457863604864 552.4107904252576L1675.8380372829956 552.4107904252576L1647.144310345726 511.9163254806082L1659.8970778734015 511.9163254806082L1688.7457863604864 552.4107904252576ZM1611.4321332239551 445.45138083116166L1611.4321332239551 512.5583919012724L1606.1627605302278 506.97905610791446L1641.0778896815195 506.97905610791446Q1657.8158970615932 506.97905610791446 1666.5170040726634 499.6506428237816Q1675.1959708623313 492.3222295396488 1675.1959708623313 479.08237714112477L1675.1959708623313 479.08237714112477Q1675.1959708623313 465.68754319278526 1666.5170040726634 458.35912990865245Q1657.8158970615932 451.0307166245196 1641.0778896815195 451.0307166245196L1641.0778896815195 451.0307166245196L1606.1627605302278 451.0307166245196L1611.4321332239551 445.45138083116166ZM1748.0372992756152 553.2078383957373L1748.0372992756152 553.2078383957373Q1734.9745686483093 553.2078383957373 1725.1000299029215 547.7170634879883Q1715.2033509361322 542.204148358837 1709.6240151427742 532.5731520488739Q1704.0446793494161 522.9200155175085 1704.0446793494161 510.4772110894643L1704.0446793494161 510.4772110894643Q1704.0446793494161 498.0565468828222 1709.3804727073498 488.49197123706574Q1714.7384062866854 478.9273955913093 1724.0594394970176 473.414480462158Q1733.3804727073498 467.9237055544089 1745.0262291649146 467.9237055544089L1745.0262291649146 467.9237055544089Q1756.8048269508922 467.9237055544089 1765.9708786114088 473.2594989123425Q1775.1369302719254 478.59529227027605 1780.4063029656522 488.24842880164135Q1785.6756756593795 497.9015653330067 1785.6756756593795 510.4772110894643L1785.6756756593795 510.4772110894643Q1785.6756756593795 511.274259059944 1785.5871147737707 512.1598679160325Q1785.4985538881615 513.0454767721211 1785.4985538881615 513.9975062924163L1785.4985538881615 513.9975062924163L1712.6572254748776 513.9975062924163L1712.6572254748776 505.5399417167705L1779.454273445357 505.5399417167705L1774.9819487221098 508.8831151485049Q1774.9819487221098 499.8056243735971 1771.08526975532 492.7207535248886Q1767.1664505671283 485.6137424547779 1760.4801037036596 481.6285026023794Q1753.7937568401912 477.64326274998086 1745.0262291649146 477.64326274998086L1745.0262291649146 477.64326274998086Q1736.4136830394532 477.64326274998086 1729.5502144047668 481.6285026023794Q1722.7088859914825 485.6137424547779 1718.8786276888995 492.78717418909525Q1715.0483693863166 499.9606059234126 1715.0483693863166 509.21521846953806L1715.0483693863166 509.21521846953806L1715.0483693863166 510.96429596031294Q1715.0483693863166 520.5288716060694 1719.2771516741395 527.7908642259956Q1723.505933961962 535.0307166245195 1731.0778896815195 539.104517362527Q1738.6498454010766 543.1561778791322 1748.3694025966488 543.1561778791322L1748.3694025966488 543.1561778791322Q1756.0077789804127 543.1561778791322 1762.6277051796746 540.455070868062Q1769.2476313789366 537.753963856992 1774.0299192018147 532.174628063634L1774.0299192018147 532.174628063634L1780.4063029656522 539.5030413477668Q1774.8269671722942 546.1893882112355 1766.4579634822576 549.7096834141876Q1758.0889597922205 553.2078383957373 1748.0372992756152 553.2078383957373ZM1844.4801037036596 584.1377276946304L1844.4801037036596 584.1377276946304Q1833.0114690173127 584.1377276946304 1822.494863851261 580.794554262896Q1811.9782586852093 577.4292406097594 1805.4247531501542 571.2299786171396L1805.4247531501542 571.2299786171396L1811.1812107147298 562.6174324916783Q1817.0705096077186 567.864664964003 1825.7494763973868 570.9864361817152Q1834.4505834084566 574.0860671780252 1844.1701406040288 574.0860671780252L1844.1701406040288 574.0860671780252Q1860.111100013623 574.0860671780252 1867.5944948475712 566.6690930082834Q1875.100029902922 559.2742590599439 1875.100029902922 543.6432627499809L1875.100029902922 543.6432627499809L1875.100029902922 522.7650339676931L1876.694125843881 508.4181704990583L1875.5649745523683 494.07130703042367L1875.5649745523683 468.7207535248886L1886.4136830394532 468.7207535248886L1886.4136830394532 542.204148358837Q1886.4136830394532 563.8794251116044 1875.8085169877927 574.0196465138184Q1865.2033509361322 584.1377276946304 1844.4801037036596 584.1377276946304ZM1842.4210631132537 549.2225985433388L1842.4210631132537 549.2225985433388Q1830.465343556058 549.2225985433388 1820.900767910302 544.0417867352207Q1811.3361922645454 538.8609749271027 1805.8232771353942 529.6063623809772Q1800.332502227645 520.3738900562539 1800.332502227645 508.4181704990583L1800.332502227645 508.4181704990583Q1800.332502227645 496.46245094186276 1805.8232771353942 487.29639928134617Q1811.3361922645454 478.1303476208296 1820.900767910302 473.0159564769181Q1830.465343556058 467.9237055544089 1842.4210631132537 467.9237055544089L1842.4210631132537 467.9237055544089Q1853.5797346999698 467.9237055544089 1862.502243925062 472.55101182747165Q1871.4247531501542 477.1783181005344 1876.694125843881 486.2558088754421Q1881.9413583162059 495.3332996503499 1881.9413583162059 508.4181704990583L1881.9413583162059 508.4181704990583Q1881.9413583162059 521.4809011263646 1876.694125843881 530.5805321226746Q1871.4247531501542 539.6580228975823 1862.502243925062 544.4403107204605Q1853.5797346999698 549.2225985433388 1842.4210631132537 549.2225985433388ZM1843.5280741833644 539.1709380267337L1843.5280741833644 539.1709380267337Q1852.7826867294898 539.1709380267337 1859.9561184638073 535.2742590599439Q1867.129550198125 531.3775800931543 1871.2697716003386 524.425550572859Q1875.4099930025527 517.4956612739661 1875.4099930025527 508.4181704990583L1875.4099930025527 508.4181704990583Q1875.4099930025527 499.3185395027484 1871.2697716003386 492.4772110894643Q1867.129550198125 485.6137424547779 1859.9561184638073 481.71706348798824Q1852.7826867294898 477.79824429979635 1843.5280741833644 477.79824429979635L1843.5280741833644 477.79824429979635Q1834.4505834084566 477.79824429979635 1827.1885907885307 481.71706348798824Q1819.9487383900068 485.6137424547779 1815.874937651999 492.4772110894643Q1811.8011369139917 499.3185395027484 1811.8011369139917 508.4181704990583L1811.8011369139917 508.4181704990583Q1811.8011369139917 517.4956612739661 1815.874937651999 524.425550572859Q1819.9487383900068 531.3775800931543 1827.1885907885307 535.2742590599439Q1834.4505834084566 539.1709380267337 1843.5280741833644 539.1709380267337ZM1929.2992918955415 552.4107904252576L1917.9856387590103 552.4107904252576L1917.9856387590103 468.7207535248886L1929.2992918955415 468.7207535248886L1929.2992918955415 552.4107904252576ZM1923.7199561021835 450.2336686540399L1923.7199561021835 450.2336686540399Q1920.1996608992317 450.2336686540399 1917.8085169877927 447.8425247426008Q1915.4173730763537 445.45138083116166 1915.4173730763537 442.1082073994274L1915.4173730763537 442.1082073994274Q1915.4173730763537 438.7428937462908 1917.8085169877927 436.44031072046056Q1920.1996608992317 434.1377276946303 1923.7199561021835 434.1377276946303L1923.7199561021835 434.1377276946303Q1927.2181110837337 434.1377276946303 1929.6092549951727 436.3517498348517Q1932.0003989066117 438.5879121964753 1932.0003989066117 441.93108562820964L1932.0003989066117 441.93108562820964Q1932.0003989066117 445.45138083116166 1929.6978158807815 447.8425247426008Q1927.3730926335493 450.2336686540399 1923.7199561021835 450.2336686540399ZM1983.343572338346 553.2078383957373L1983.343572338346 553.2078383957373Q1972.9819487221098 553.2078383957373 1963.7273361759844 550.2631889492428Q1954.472723629859 547.3185395027484 1949.2254911575342 542.8462147795012L1949.2254911575342 542.8462147795012L1954.3177420800434 533.9237055544089Q1959.4321332239551 537.753963856992 1967.4026129287522 540.5436317536709Q1975.3730926335493 543.3332996503499 1984.1406203088259 543.3332996503499L1984.1406203088259 543.3332996503499Q1996.0963398660215 543.3332996503499 2001.343572338346 539.5694620119734Q2006.6129450320732 535.8277645949993 2006.6129450320732 529.6063623809772L2006.6129450320732 529.6063623809772Q2006.6129450320732 525.0011963293166 2003.6682955855786 522.3665099824532Q2000.701505917682 519.7318236355898 1995.919218094804 518.3812701300546Q1991.1369302719254 517.0307166245195 1985.2476313789366 516.0565468828222Q1979.3583324859474 515.104517362527 1973.5354542571654 513.8425247426007Q1967.712576028383 512.5583919012724 1962.930288205505 510.0786871042244Q1958.1480003826264 507.62112252857867 1955.2033509361322 503.3037793551469Q1952.2587014896376 499.0085764031174 1952.2587014896376 491.83514466880007L1952.2587014896376 491.83514466880007Q1952.2587014896376 484.97167603411367 1956.0668195708186 479.5694620119735Q1959.8970778734015 474.14510776843105 1967.3140520431434 471.02333655071885Q1974.731026212885 467.9237055544089 1985.4026129287518 467.9237055544089L1985.4026129287518 467.9237055544089Q1993.5280741833644 467.9237055544089 2001.6756756593795 470.07130703042367Q2009.8011369139917 472.2189085064384 2015.0483693863166 475.73920370939044L2015.0483693863166 475.73920370939044L2010.111100013623 484.8166944842982Q2004.531764220265 480.9864361817152 1998.1553804564273 479.32591957654915Q1991.7789966925898 477.64326274998086 1985.4026129287518 477.64326274998086L1985.4026129287518 477.64326274998086Q1974.0889597922205 477.64326274998086 1968.7531664342873 481.56208193817275Q1963.4173730763532 485.45876090496245 1963.4173730763532 491.52518156916904L1963.4173730763532 491.52518156916904Q1963.4173730763532 496.30746939204727 1966.3620225228478 499.0085764031174Q1969.3066719693425 501.7096834141875 1974.1775206778293 503.23735869094025Q1979.0262291649146 504.7428937462908 1984.8491073936966 505.69492326658604Q1990.671985622479 506.6690930082834 1996.4948638512615 508.0196465138185Q2002.2956018586415 509.37020001935355 2007.1664505671283 511.6727830451838Q2012.0372992756156 513.9975062924163 2014.9819487221098 518.2262885802392Q2017.9265981686044 522.4329306466598 2017.9265981686044 529.2963992813461L2017.9265981686044 529.2963992813461Q2017.9265981686044 536.624812565479 2013.852797430597 541.9606059234126Q2009.8011369139917 547.3185395027484 2002.074199644619 550.2631889492428Q1994.3251221538444 553.2078383957373 1983.343572338346 553.2078383957373ZM2065.1074099767225 553.2078383957373L2065.1074099767225 553.2078383957373Q2053.3066719693425 553.2078383957373 2046.930288205505 546.8314546318996Q2040.5539044416669 540.455070868062 2040.5539044416669 528.8093144104974L2040.5539044416669 528.8093144104974L2040.5539044416669 450.2336686540399L2051.8896977996005 450.2336686540399L2051.8896977996005 528.1893882112355Q2051.8896977996005 535.5178014953683 2055.631395216575 539.5030413477668Q2059.3730926335493 543.4882812001654 2066.391542818051 543.4882812001654L2066.391542818051 543.4882812001654Q2073.8749376519995 543.4882812001654 2078.8122070246927 539.1709380267337L2078.8122070246927 539.1709380267337L2082.7974468770917 547.3185395027484Q2079.454273445357 550.3296096134495 2074.760546508088 551.7687240045934Q2070.044679349416 553.2078383957373 2065.1074099767225 553.2078383957373ZM2077.3952328549512 478.1303476208296L2025.5871147737707 478.1303476208296L2025.5871147737707 468.7207535248886L2077.3952328549512 468.7207535248886L2077.3952328549512 478.1303476208296ZM2138.9229081317044 553.2078383957373L2138.9229081317044 553.2078383957373Q2125.8380372829956 553.2078383957373 2115.9634985376083 547.7170634879883Q2106.0889597922205 542.204148358837 2100.509623998863 532.5731520488739Q2094.930288205505 522.9200155175085 2094.930288205505 510.4772110894643L2094.930288205505 510.4772110894643Q2094.930288205505 498.0565468828222 2100.2660815634385 488.49197123706574Q2105.6018749213717 478.9273955913093 2114.922908131704 473.414480462158Q2124.243941342036 467.9237055544089 2135.8896977996005 467.9237055544089L2135.8896977996005 467.9237055544089Q2147.6904358069805 467.9237055544089 2156.856487467497 473.2594989123425Q2166.022539128014 478.59529227027605 2171.2697716003386 488.24842880164135Q2176.539144294066 497.9015653330067 2176.539144294066 510.4772110894643L2176.539144294066 510.4772110894643Q2176.539144294066 511.274259059944 2176.4505834084566 512.1598679160325Q2176.3841627442503 513.0454767721211 2176.3841627442503 513.9975062924163L2176.3841627442503 513.9975062924163L2103.520694109564 513.9975062924163L2103.520694109564 505.5399417167705L2170.3177420800434 505.5399417167705L2165.8675575781986 508.8831151485049Q2165.8675575781986 499.8056243735971 2161.948738390007 492.7207535248886Q2158.052059423217 485.6137424547779 2151.343572338346 481.6285026023794Q2144.6572254748776 477.64326274998086 2135.8896977996005 477.64326274998086L2135.8896977996005 477.64326274998086Q2127.2771516741395 477.64326274998086 2120.4358232608556 481.6285026023794Q2113.572354626169 485.6137424547779 2109.742096323586 492.78717418909525Q2105.911838021003 499.9606059234126 2105.911838021003 509.21521846953806L2105.911838021003 509.21521846953806L2105.911838021003 510.96429596031294Q2105.911838021003 520.5288716060694 2110.140620308826 527.7908642259956Q2114.369402596649 535.0307166245195 2121.941358316206 539.104517362527Q2129.5133140357634 543.1561778791322 2139.232871231335 543.1561778791322L2139.232871231335 543.1561778791322Q2146.893387836501 543.1561778791322 2153.513314035763 540.455070868062Q2160.111100013623 537.753963856992 2164.893387836501 532.174628063634L2164.893387836501 532.174628063634L2171.2697716003386 539.5030413477668Q2165.6904358069805 546.1893882112355 2157.321432116944 549.7096834141876Q2148.952428426907 553.2078383957373 2138.9229081317044 553.2078383957373ZM2210.9671885745083 552.4107904252576L2199.653535437977 552.4107904252576L2199.653535437977 468.7207535248886L2210.502243925062 468.7207535248886L2210.502243925062 491.52518156916904L2209.3730926335493 487.5399417167705Q2212.893387836501 477.9753660710141 2221.1738306409293 472.9495358127115Q2229.454273445357 467.9237055544089 2241.742096323586 467.9237055544089L2241.742096323586 467.9237055544089L2241.742096323586 478.9273955913093Q2241.100029902922 478.9273955913093 2240.4579634822576 478.83883470570044Q2239.815897061593 478.7724140414938 2239.1959708623313 478.7724140414938L2239.1959708623313 478.7724140414938Q2225.9561184638073 478.7724140414938 2218.472723629859 486.80931441049745Q2210.9671885745083 494.86835500090336 2210.9671885745083 509.6801631189845L2210.9671885745083 509.6801631189845L2210.9671885745083 552.4107904252576Z " fill="#000000" transform="matrix(0.3903214500872997,0,0,0.3903214500872996,0,101.27260996396758)"/></g></svg>